<svg xmlns="http://www.w3.org/2000/svg" xmlns:xlink="http://www.w3.org/1999/xlink" width="500" zoomAndPan="magnify" viewBox="0 0 375 374.999991" height="500" preserveAspectRatio="xMidYMid meet" version="1.0"><defs><clipPath id="id1"><path d="M 278 247 L 374.777344 247 L 374.777344 282 L 278 282 Z M 278 247 " clip-rule="nonzero"/></clipPath></defs><rect x="-37.5" width="450" fill="#ffffff" y="-37.499999" height="449.999989" fill-opacity="1"/><rect x="-37.5" width="450" fill="#ffffff" y="-37.499999" height="449.999989" fill-opacity="1"/><rect x="-37.5" width="450" fill="#ffffff" y="-37.499999" height="449.999989" fill-opacity="1"/><path fill="#10879a" d="M 222.039062 241.101562 C 222.039062 241.101562 202.484375 242.910156 190.304688 226.730469 C 178.011719 210.398438 192.507812 200.992188 200.488281 206.773438 C 204.734375 209.855469 198.894531 214.964844 205.46875 226.542969 C 212.0625 238.117188 222.039062 241.101562 222.039062 241.101562 " fill-opacity="1" fill-rule="nonzero"/><path fill="#10879a" d="M 197.902344 244.714844 C 230.488281 254.867188 262.546875 253.050781 265.003906 252.902344 C 158.34375 268.617188 121.269531 223.523438 125.644531 187.820312 C 130.050781 152.097656 156.585938 149.703125 170.347656 157.480469 C 184.121094 165.257812 182.738281 184.835938 179.929688 186.429688 C 177.148438 188.027344 170.347656 182.632812 160.976562 187.019531 C 151.601562 191.414062 152.402344 201.601562 152.402344 201.601562 C 152.402344 201.601562 157.78125 195.804688 166.964844 196.601562 C 176.144531 197.398438 179.125 208.976562 175.132812 212.171875 C 171.144531 215.363281 163.960938 234.125 197.902344 244.714844 " fill-opacity="1" fill-rule="nonzero"/><path fill="#10879a" d="M 225.84375 169.457031 C 229.46875 169.457031 232.417969 172.410156 232.417969 176.054688 C 232.417969 179.675781 229.46875 182.632812 225.84375 182.632812 C 222.203125 182.632812 219.25 179.675781 219.25 176.054688 C 219.25 172.410156 222.203125 169.457031 225.84375 169.457031 " fill-opacity="1" fill-rule="nonzero"/><path fill="#14aac1" d="M 248.382812 121.953125 C 250.746094 135.320312 245.191406 141.515625 240 141.515625 C 234.816406 141.515625 234.816406 136.722656 231.621094 131.933594 C 229.722656 129.089844 226.414062 127.511719 224.050781 126.695312 L 224.898438 123.820312 C 228.695312 124.875 231.75 124.828125 234.015625 122.75 C 239.140625 118.058594 232.960938 107.421875 219.695312 100.683594 L 223 98.496094 C 226.464844 99.152344 245.125 103.507812 248.382812 121.953125 " fill-opacity="1" fill-rule="nonzero"/><path fill="#10879a" d="M 219.695312 100.683594 C 232.960938 107.421875 239.140625 118.058594 234.015625 122.75 C 231.75 124.828125 228.695312 124.875 224.898438 123.820312 C 212.589844 120.46875 192.570312 105.683594 166.964844 111.175781 C 134.566406 118.121094 122.292969 141.082031 121.492188 142.632812 C 122.019531 140.828125 131.152344 111.941406 171.75 98.402344 C 191.246094 91.902344 208.152344 94.824219 219.695312 100.683594 " fill-opacity="1" fill-rule="nonzero"/><path fill="#10879a" d="M 220.046875 137.519531 C 222.296875 148.410156 211.488281 151.875 203.21875 146.257812 C 201.460938 144.675781 199.273438 143.078125 196.496094 141.515625 C 180.933594 132.730469 146.605469 137.125 127.449219 162.671875 C 116.226562 177.636719 112.953125 200.273438 124.03125 220.058594 L 123.859375 220.152344 C 104.699219 192.210938 116.671875 144.707031 150.996094 126.34375 C 185.324219 107.980469 217.652344 125.941406 220.046875 137.519531 " fill-opacity="1" fill-rule="nonzero"/><path fill="#10879a" d="M 266.984375 283.578125 C 287.433594 286.386719 306.847656 291.148438 324.875 299.53125 C 322.527344 298.636719 291.9375 287.398438 235.214844 291.609375 C 176.144531 296 107.890625 322.742188 67.980469 281.230469 C 67.980469 281.230469 66.109375 280.0625 63.414062 278.164062 C 84.980469 290.796875 119.976562 287.605469 154.191406 284.425781 C 179.207031 282.09375 208.886719 280.191406 231.1875 280.417969 C 231.203125 280.417969 231.222656 280.417969 231.253906 280.417969 C 243.453125 281.042969 255.375 281.996094 266.984375 283.578125 " fill-opacity="1" fill-rule="nonzero"/><g clip-path="url(#id1)"><path fill="#14aac1" d="M 369.910156 274.253906 C 371.90625 276.792969 373.515625 279.203125 374.777344 281.488281 C 349.347656 247.632812 293.691406 255.28125 293.691406 255.28125 L 293.675781 255.539062 C 284.484375 254.707031 278.90625 255.476562 278.90625 255.476562 C 319.03125 236.121094 354.359375 254.484375 369.910156 274.253906 " fill-opacity="1" fill-rule="nonzero"/></g><path fill="#14aac1" d="M 332.199219 227.734375 C 359.742188 230.933594 370.515625 247.300781 370.515625 247.300781 C 344.175781 232.527344 335.789062 240.910156 296.675781 245.699219 C 257.5625 250.492188 235.214844 247.699219 235.214844 247.699219 C 249.980469 247.699219 269.539062 247.300781 297.476562 237.71875 C 325.414062 228.136719 332.199219 227.734375 332.199219 227.734375 " fill-opacity="1" fill-rule="nonzero"/><path fill="#14aac1" d="M 179.320312 265.644531 C 170.488281 263.460938 161.882812 260.921875 153.648438 257.917969 L 153.628906 257.917969 C 109.855469 239.300781 81.226562 193.933594 100.308594 141.914062 C 109.039062 118.136719 124.0625 102.136719 140.300781 91.933594 C 161.964844 78.359375 185.785156 75.136719 199.691406 77.640625 C 224.039062 82.035156 222.441406 98.402344 222.441406 98.402344 C 222.441406 98.402344 222.632812 98.433594 223 98.496094 L 219.695312 100.683594 C 208.152344 94.824219 191.246094 91.902344 171.75 98.402344 C 131.152344 111.941406 122.019531 140.828125 121.492188 142.632812 C 122.292969 141.082031 134.566406 118.121094 166.964844 111.175781 C 192.570312 105.683594 212.589844 120.46875 224.898438 123.820312 L 224.050781 126.695312 C 222.425781 126.152344 221.242188 125.941406 221.242188 125.941406 C 242 146.304688 225.632812 163.070312 217.253906 161.472656 C 210.375 160.167969 211.296875 153.457031 203.21875 146.257812 C 211.488281 151.875 222.296875 148.410156 220.046875 137.519531 C 217.652344 125.941406 185.324219 107.980469 150.996094 126.34375 C 116.671875 144.707031 104.699219 192.210938 123.859375 220.152344 L 124.03125 220.058594 C 131.855469 234.0625 146.878906 246.644531 171.355469 254.085938 C 179.15625 256.464844 186.617188 258.191406 193.785156 259.453125 C 253.636719 275.722656 327.238281 267.578125 371.125 318.421875 L 370.867188 318.644531 C 365.136719 312.160156 347.128906 296.210938 302.058594 286.230469 C 291.617188 283.917969 279.898438 282.0625 267.449219 280.304688 C 239.761719 276.394531 208.421875 272.898438 179.320312 265.644531 " fill-opacity="1" fill-rule="nonzero"/><path fill="#14aac1" d="M 234.621094 68.460938 C 238.039062 68.460938 240.800781 71.222656 240.800781 74.65625 C 240.800781 78.074219 238.039062 80.835938 234.621094 80.835938 C 231.1875 80.835938 228.429688 78.074219 228.429688 74.65625 C 228.429688 71.222656 231.1875 68.460938 234.621094 68.460938 " fill-opacity="1" fill-rule="nonzero"/><path fill="#14aac1" d="M 200.886719 52.492188 C 214.890625 46.566406 226.03125 55.285156 221.242188 63.066406 C 216.453125 70.855469 212.0625 66.464844 202.484375 64.660156 C 192.90625 62.871094 186.917969 69.066406 186.917969 69.066406 C 186.917969 69.066406 190.511719 56.882812 200.886719 52.492188 " fill-opacity="1" fill-rule="nonzero"/><path fill="#10879a" d="M 129.683594 68.492188 C 115.941406 77.050781 98.679688 96.148438 89.324219 129.679688 C 92.023438 116.828125 95.886719 104.773438 99.875 94.664062 C 104.316406 83.4375 108.914062 74.59375 112.28125 69.65625 C 123.457031 53.289062 141.417969 39.910156 160.976562 48.5 C 178.492188 56.179688 170.15625 80.4375 154.589844 74.046875 C 154.589844 74.046875 156.777344 65.875 147.199219 63.269531 C 143.625 62.296875 137.1875 63.828125 129.714844 68.472656 C 129.699219 68.472656 129.699219 68.492188 129.683594 68.492188 " fill-opacity="1" fill-rule="nonzero"/><path fill="#14aac1" d="M 119.195312 26.019531 C 123.585938 16.039062 133.035156 16.964844 129.714844 26.816406 C 126.378906 36.648438 116.269531 40.515625 112.953125 50.625 C 112.953125 50.625 113.832031 43.664062 115.8125 36.0625 C 116.71875 32.644531 117.824219 29.113281 119.195312 26.019531 " fill-opacity="1" fill-rule="nonzero"/><path fill="#18cae5" d="M 231.1875 280.417969 C 208.886719 280.191406 179.207031 282.09375 154.191406 284.425781 C 119.976562 287.605469 84.980469 290.796875 63.414062 278.164062 C 58.738281 274.859375 51.535156 269.382812 47.222656 264.066406 C 40.4375 255.683594 58.574219 267.851562 95.121094 273.246094 C 129.414062 278.308594 163.355469 278.628906 195.90625 279.300781 C 207.882812 279.527344 219.664062 279.828125 231.1875 280.417969 " fill-opacity="1" fill-rule="nonzero"/><path fill="#18cae5" d="M 98.789062 91.28125 C 105.671875 62.328125 127.511719 44.492188 145.8125 38.921875 C 164.167969 33.332031 168.558594 22.949219 160.578125 18.160156 C 152.59375 13.371094 142.617188 20.15625 122.660156 43.3125 C 120.167969 46.203125 117.902344 49.171875 115.859375 52.15625 L 112.953125 50.625 C 116.269531 40.515625 126.378906 36.648438 129.714844 26.816406 C 133.035156 16.964844 123.585938 16.039062 119.195312 26.019531 C 117.824219 29.113281 116.71875 32.644531 115.8125 36.0625 L 112.328125 35.105469 C 113.285156 30.726562 113.480469 25.632812 115.074219 21.753906 C 118.269531 13.976562 127.050781 11.582031 131.839844 13.5625 C 136.628906 15.574219 131.644531 22.949219 135.636719 23.347656 C 139.632812 23.75 138.417969 19.355469 145.601562 13.5625 C 152.785156 7.78125 164.566406 9.1875 171.144531 17.363281 C 177.738281 25.539062 175.132812 36.523438 172.148438 37.324219 C 169.164062 38.121094 167.949219 33.332031 163.371094 35.117188 C 158.789062 36.921875 159.378906 41.121094 159.378906 41.121094 C 180.726562 39.910156 181.523438 66.671875 171.941406 73.441406 C 162.367188 80.242188 154.589844 74.046875 154.589844 74.046875 C 170.15625 80.4375 178.492188 56.179688 160.976562 48.5 C 141.417969 39.910156 123.457031 53.289062 112.28125 69.65625 C 108.914062 74.59375 104.316406 83.4375 99.875 94.664062 L 97.914062 94.410156 C 97.914062 94.375 97.929688 94.363281 97.929688 94.328125 C 98.074219 93.816406 98.167969 93.320312 98.234375 92.84375 C 98.328125 92.394531 98.441406 91.851562 98.601562 91.230469 L 98.789062 91.28125 " fill-opacity="1" fill-rule="nonzero"/><path fill="#14aac1" d="M 160.578125 18.160156 C 168.558594 22.949219 164.167969 33.332031 145.8125 38.921875 C 127.511719 44.492188 105.671875 62.328125 98.789062 91.28125 L 98.601562 91.230469 C 100.179688 84.507812 104.890625 68.171875 115.859375 52.15625 C 117.902344 49.171875 120.167969 46.203125 122.660156 43.3125 C 142.617188 20.15625 152.59375 13.371094 160.578125 18.160156 " fill-opacity="1" fill-rule="nonzero"/><path fill="#18cae5" d="M 151.667969 258.507812 C 151.601562 258.476562 151.539062 258.460938 151.476562 258.445312 C 146.175781 256.644531 140.988281 254.597656 135.925781 252.3125 C 135.910156 252.3125 135.894531 252.300781 135.878906 252.300781 C 102.542969 237.210938 75.304688 211.675781 65.980469 174.644531 C 52.414062 120.753906 70.183594 81.234375 77.558594 74.242188 C 84.933594 67.261719 88.734375 71.65625 88.734375 71.65625 C 94.925781 66.464844 94.511719 59.28125 93.125 48.5 C 91.734375 37.722656 100.097656 31.542969 104.699219 34.738281 C 109.296875 37.929688 105.097656 44.109375 105.097656 44.109375 C 109.679688 43.101562 111.390625 39.460938 112.328125 35.105469 L 115.8125 36.0625 C 113.832031 43.664062 112.953125 50.625 112.953125 50.625 L 115.859375 52.15625 C 104.890625 68.171875 100.179688 84.507812 98.601562 91.230469 C 98.441406 91.851562 98.328125 92.394531 98.234375 92.84375 C 99.894531 80.324219 80.429688 74.703125 72.765625 100.394531 C 64.785156 127.144531 57.601562 178.238281 102.703125 226.542969 C 114.691406 239.363281 130.308594 248.6875 147.851562 255.71875 C 149.753906 256.464844 151.683594 257.199219 153.628906 257.917969 L 153.648438 257.917969 C 161.882812 260.921875 170.488281 263.460938 179.320312 265.644531 C 169.949219 263.9375 160.65625 261.5625 151.667969 258.507812 " fill-opacity="1" fill-rule="nonzero"/><path fill="#14aac1" d="M 195.972656 275.242188 C 195.972656 275.242188 115.074219 272.320312 65.582031 248.367188 C 16.089844 224.417969 3.847656 205.257812 0.65625 183.15625 C -2.152344 163.773438 3.382812 157.976562 13.28125 169.933594 C 15.023438 172.699219 16.988281 175.457031 19.191406 178.207031 C 47.765625 219.707031 121.988281 266.09375 195.972656 275.242188 " fill-opacity="1" fill-rule="nonzero"/><path fill="#18cae5" d="M 147.902344 255.570312 C 143.941406 253.976562 101.316406 235.945312 89.136719 191.8125 C 83.671875 172.046875 85.0625 149.863281 89.324219 129.679688 C 98.679688 96.148438 115.941406 77.050781 129.683594 68.492188 C 129.699219 68.492188 129.699219 68.472656 129.714844 68.472656 C 138.113281 64.308594 146.035156 68.171875 147.613281 73.25 C 149.402344 79.03125 148.410156 86.027344 140.21875 91.808594 L 140.300781 91.933594 C 124.0625 102.136719 109.039062 118.136719 100.308594 141.914062 C 81.226562 193.933594 109.855469 239.300781 153.628906 257.917969 C 151.683594 257.199219 149.753906 256.464844 147.851562 255.71875 L 147.902344 255.570312 " fill-opacity="1" fill-rule="nonzero"/><path fill="#14aac1" d="M 89.324219 129.679688 C 85.0625 149.863281 83.671875 172.046875 89.136719 191.8125 C 101.316406 235.945312 143.941406 253.976562 147.902344 255.570312 L 147.851562 255.71875 C 130.308594 248.6875 114.691406 239.363281 102.703125 226.542969 C 57.601562 178.238281 64.785156 127.144531 72.765625 100.394531 C 80.429688 74.703125 99.894531 80.324219 98.234375 92.84375 C 98.058594 93.625 97.960938 94.136719 97.929688 94.328125 C 97.929688 94.363281 97.914062 94.375 97.914062 94.410156 L 99.875 94.664062 C 95.886719 104.773438 92.023438 116.828125 89.324219 129.679688 " fill-opacity="1" fill-rule="nonzero"/><path fill="#18cae5" d="M 135.925781 252.3125 C 140.988281 254.597656 146.175781 256.644531 151.476562 258.445312 C 116.339844 247.125 57.792969 218.6875 24.875 184.625 C 22.8125 182.503906 20.933594 180.363281 19.191406 178.207031 C 18.664062 177.457031 18.167969 176.707031 17.691406 175.972656 C 16.160156 173.609375 14.6875 171.59375 13.28125 169.933594 C -6.976562 137.660156 3.722656 105.265625 14.097656 103.191406 C 26.070312 100.792969 12.101562 129.535156 30.859375 163.46875 C 45.769531 190.453125 77.476562 228.152344 135.878906 252.300781 C 135.894531 252.300781 135.910156 252.3125 135.925781 252.3125 " fill-opacity="1" fill-rule="nonzero"/><path fill="#18cae5" d="M 79.679688 37.050781 C 84.886719 48.996094 75.257812 63.847656 74.777344 64.5625 C 74.890625 63.894531 76.519531 54.027344 69.574219 48.769531 C 62.390625 43.3125 54.011719 38.648438 58 31.859375 C 61.992188 25.074219 74.363281 24.820312 79.679688 37.050781 " fill-opacity="1" fill-rule="nonzero"/><path fill="#18cae5" d="M 45.355469 51.964844 C 47.75 49.027344 69.304688 54.886719 66.65625 78.839844 C 63.988281 102.792969 31.257812 122.222656 55.207031 170.382812 C 55.207031 170.382812 39.515625 153.890625 36.847656 127.269531 C 34.179688 100.667969 45.355469 82.035156 45.628906 68.460938 C 45.898438 54.886719 42.960938 54.886719 45.355469 51.964844 " fill-opacity="1" fill-rule="nonzero"/></svg>